<?xml version="1.0" encoding="utf-8"?>
<!-- Generator: Adobe Illustrator 26.0.3, SVG Export Plug-In . SVG Version: 6.00 Build 0)  -->
<svg version="1.1" id="Capa_1" xmlns="http://www.w3.org/2000/svg" xmlns:xlink="http://www.w3.org/1999/xlink" x="0px" y="0px"
	 viewBox="0 0 1280 1024" style="enable-background:new 0 0 1280 1024;" xml:space="preserve">
<style type="text/css">
	.st0{fill:none;stroke:#000000;}
</style>
<g>
	<path class="st0" d="M246.8,329.2v471.3H88.2V329.2H246.8z M244.5,331.6h-154v154C90.5,398.8,157.8,331.6,244.5,331.6z
		 M244.5,641.9c-86.7,0-154-67.3-154-154v154H244.5z M244.5,644.2h-154v154h154V644.2z M244.5,382.5c-54.4,0-103,48.6-103,103h103
		V382.5z M244.5,487.9h-103c0,54.4,48.6,103,103,103V487.9z"/>
	<path class="st0" d="M559.4,800.5h-315V329.2h315V800.5z M400.8,641.9c-86.7,0-154-67.3-154-154v154H400.8z M400.8,644.2h-154v154
		h154V644.2z M400.8,331.6h-103v154h103V331.6z M400.8,487.9h-103c0,54.4,48.6,103,103,103V487.9z M403.1,485.5h103v-154h-103V485.5
		z M403.1,590.9c54.4,0,103-48.6,103-103h-103V590.9z M557.1,487.9c0,86.7-67.3,154-154,154h154V487.9z M557.1,644.2h-154v154h154
		V644.2z"/>
	<path class="st0" d="M872.1,800.5h-315V329.2h315V800.5z M713.4,641.9c-86.7,0-154-67.3-154-154v154H713.4z M713.4,644.2h-154v154
		h154V644.2z M713.4,331.6h-103v154h103V331.6z M713.4,487.9h-103c0,54.4,48.6,103,103,103V487.9z M869.7,331.6h-154v154h154V331.6z
		 M869.7,487.9h-154v103h154V487.9z M869.7,644.2h-154v154h154V644.2z"/>
	<path class="st0" d="M1184.7,800.5h-315V329.2h315V800.5z M1026,331.6h-154v154C872.1,398.8,939.3,331.6,1026,331.6z M1026,641.9
		c-86.7,0-154-67.3-154-154v154H1026z M1026,644.2h-154v154h154V644.2z M1026,382.5c-54.4,0-103,48.6-103,103h103V382.5z
		 M1026,487.9H923c0,54.4,48.6,103,103,103V487.9z M1182.4,331.6h-154c86.7,0,154,67.3,154,154V331.6z M1028.4,485.5h103
		c0-54.4-48.6-103-103-103V485.5z M1028.4,590.9c54.4,0,103-48.6,103-103h-103V590.9z M1182.4,487.9c0,86.7-67.3,154-154,154h154
		V487.9z M1182.4,644.2h-154v154h154V644.2z"/>
</g>
</svg>
